<svg width="132" height="38" viewBox="0 0 132 38" fill="none" xmlns="http://www.w3.org/2000/svg">
<path d="M49.9041 21.768H45.1881L44.4321 24H41.2101L45.7821 11.364H49.3461L53.9181 24H50.6601L49.9041 21.768ZM49.1121 19.392L47.5461 14.766L45.9981 19.392H49.1121ZM59.1256 13.812C59.8336 13.812 60.4516 13.956 60.9796 14.244C61.5196 14.532 61.9336 14.91 62.2216 15.378V13.956H65.2996V23.982C65.2996 24.906 65.1136 25.74 64.7416 26.484C64.3816 27.24 63.8236 27.84 63.0676 28.284C62.3236 28.728 61.3936 28.95 60.2776 28.95C58.7896 28.95 57.5836 28.596 56.6596 27.888C55.7356 27.192 55.2076 26.244 55.0756 25.044H58.1176C58.2136 25.428 58.4416 25.728 58.8016 25.944C59.1616 26.172 59.6056 26.286 60.1336 26.286C60.7696 26.286 61.2736 26.1 61.6456 25.728C62.0296 25.368 62.2216 24.786 62.2216 23.982V22.56C61.9216 23.028 61.5076 23.412 60.9796 23.712C60.4516 24 59.8336 24.144 59.1256 24.144C58.2976 24.144 57.5476 23.934 56.8756 23.514C56.2036 23.082 55.6696 22.476 55.2736 21.696C54.8896 20.904 54.6976 19.992 54.6976 18.96C54.6976 17.928 54.8896 17.022 55.2736 16.242C55.6696 15.462 56.2036 14.862 56.8756 14.442C57.5476 14.022 58.2976 13.812 59.1256 13.812ZM62.2216 18.978C62.2216 18.21 62.0056 17.604 61.5736 17.16C61.1536 16.716 60.6376 16.494 60.0256 16.494C59.4136 16.494 58.8916 16.716 58.4596 17.16C58.0396 17.592 57.8296 18.192 57.8296 18.96C57.8296 19.728 58.0396 20.34 58.4596 20.796C58.8916 21.24 59.4136 21.462 60.0256 21.462C60.6376 21.462 61.1536 21.24 61.5736 20.796C62.0056 20.352 62.2216 19.746 62.2216 18.978ZM70.6044 15.63C70.9644 15.078 71.4144 14.646 71.9544 14.334C72.4944 14.01 73.0944 13.848 73.7544 13.848V17.106H72.9084C72.1404 17.106 71.5644 17.274 71.1804 17.61C70.7964 17.934 70.6044 18.51 70.6044 19.338V24H67.5264V13.956H70.6044V15.63ZM79.7976 24.144C78.8136 24.144 77.9256 23.934 77.1336 23.514C76.3536 23.094 75.7356 22.494 75.2796 21.714C74.8356 20.934 74.6136 20.022 74.6136 18.978C74.6136 17.946 74.8416 17.04 75.2976 16.26C75.7536 15.468 76.3776 14.862 77.1696 14.442C77.9616 14.022 78.8496 13.812 79.8336 13.812C80.8176 13.812 81.7056 14.022 82.4976 14.442C83.2896 14.862 83.9136 15.468 84.3696 16.26C84.8256 17.04 85.0536 17.946 85.0536 18.978C85.0536 20.01 84.8196 20.922 84.3516 21.714C83.8956 22.494 83.2656 23.094 82.4616 23.514C81.6696 23.934 80.7816 24.144 79.7976 24.144ZM79.7976 21.48C80.3856 21.48 80.8836 21.264 81.2916 20.832C81.7116 20.4 81.9216 19.782 81.9216 18.978C81.9216 18.174 81.7176 17.556 81.3096 17.124C80.9136 16.692 80.4216 16.476 79.8336 16.476C79.2336 16.476 78.7356 16.692 78.3396 17.124C77.9436 17.544 77.7456 18.162 77.7456 18.978C77.7456 19.782 77.9376 20.4 78.3216 20.832C78.7176 21.264 79.2096 21.48 79.7976 21.48ZM94.3366 17.52C95.0686 17.676 95.6566 18.042 96.1006 18.618C96.5446 19.182 96.7666 19.83 96.7666 20.562C96.7666 21.618 96.3946 22.458 95.6506 23.082C94.9186 23.694 93.8926 24 92.5726 24H86.6866V11.364H92.3746C93.6586 11.364 94.6606 11.658 95.3806 12.246C96.1126 12.834 96.4786 13.632 96.4786 14.64C96.4786 15.384 96.2806 16.002 95.8846 16.494C95.5006 16.986 94.9846 17.328 94.3366 17.52ZM89.7646 16.476H91.7806C92.2846 16.476 92.6686 16.368 92.9326 16.152C93.2086 15.924 93.3466 15.594 93.3466 15.162C93.3466 14.73 93.2086 14.4 92.9326 14.172C92.6686 13.944 92.2846 13.83 91.7806 13.83H89.7646V16.476ZM92.0326 21.516C92.5486 21.516 92.9446 21.402 93.2206 21.174C93.5086 20.934 93.6526 20.592 93.6526 20.148C93.6526 19.704 93.5026 19.356 93.2026 19.104C92.9146 18.852 92.5126 18.726 91.9966 18.726H89.7646V21.516H92.0326ZM100.1 12.912C99.5598 12.912 99.1158 12.756 98.7678 12.444C98.4318 12.12 98.2638 11.724 98.2638 11.256C98.2638 10.776 98.4318 10.38 98.7678 10.068C99.1158 9.744 99.5598 9.582 100.1 9.582C100.628 9.582 101.06 9.744 101.396 10.068C101.744 10.38 101.918 10.776 101.918 11.256C101.918 11.724 101.744 12.12 101.396 12.444C101.06 12.756 100.628 12.912 100.1 12.912ZM101.63 13.956V24H98.5518V13.956H101.63ZM105.39 12.912C104.85 12.912 104.406 12.756 104.058 12.444C103.722 12.12 103.554 11.724 103.554 11.256C103.554 10.776 103.722 10.38 104.058 10.068C104.406 9.744 104.85 9.582 105.39 9.582C105.918 9.582 106.35 9.744 106.686 10.068C107.034 10.38 107.208 10.776 107.208 11.256C107.208 11.724 107.034 12.12 106.686 12.444C106.35 12.756 105.918 12.912 105.39 12.912ZM106.938 25.296C106.938 26.532 106.626 27.42 106.002 27.96C105.378 28.512 104.508 28.788 103.392 28.788H102.186V26.178H102.924C103.26 26.178 103.5 26.112 103.644 25.98C103.788 25.848 103.86 25.632 103.86 25.332V13.956H106.938V25.296ZM108.539 18.96C108.539 17.928 108.731 17.022 109.115 16.242C109.511 15.462 110.045 14.862 110.717 14.442C111.389 14.022 112.139 13.812 112.967 13.812C113.675 13.812 114.293 13.956 114.821 14.244C115.361 14.532 115.775 14.91 116.063 15.378V13.956H119.141V24H116.063V22.578C115.763 23.046 115.343 23.424 114.803 23.712C114.275 24 113.657 24.144 112.949 24.144C112.133 24.144 111.389 23.934 110.717 23.514C110.045 23.082 109.511 22.476 109.115 21.696C108.731 20.904 108.539 19.992 108.539 18.96ZM116.063 18.978C116.063 18.21 115.847 17.604 115.415 17.16C114.995 16.716 114.479 16.494 113.867 16.494C113.255 16.494 112.733 16.716 112.301 17.16C111.881 17.592 111.671 18.192 111.671 18.96C111.671 19.728 111.881 20.34 112.301 20.796C112.733 21.24 113.255 21.462 113.867 21.462C114.479 21.462 114.995 21.24 115.415 20.796C115.847 20.352 116.063 19.746 116.063 18.978ZM127.506 24L124.446 19.788V24H121.368V10.68H124.446V18.042L127.488 13.956H131.286L127.11 18.996L131.322 24H127.506Z" fill="#1F2937"/>
<path d="M26.8468 29C24.5374 33 18.7639 33 16.4545 29L5.19615 9.5C2.88675 5.5 5.7735 0.5 10.3923 0.5L32.909 0.5C37.5278 0.5 40.4145 5.5 38.1051 9.5L26.8468 29Z" fill="url(#paint0_linear_241_20)"/>
<path d="M25.8682 22.4806C25.4843 23.1524 24.5157 23.1524 24.1318 22.4806L17.8549 11.4961C17.474 10.8295 17.9554 10 18.7232 10L31.2768 10C32.0446 10 32.526 10.8295 32.1451 11.4961L25.8682 22.4806Z" fill="white"/>
<defs>
<linearGradient id="paint0_linear_241_20" x1="21.6506" y1="38" x2="21.6506" y2="0.5" gradientUnits="userSpaceOnUse">
<stop stop-color="#F43F5E"/>
<stop offset="1" stop-color="#9F1239"/>
</linearGradient>
</defs>
</svg>
