<svg width="163" height="109" viewBox="0 0 163 109" fill="none" xmlns="http://www.w3.org/2000/svg">
<mask id="mask0_257_145" style="mask-type:luminance" maskUnits="userSpaceOnUse" x="0" y="0" width="163" height="109">
<path d="M0 0H162.192V109H0V0Z" fill="white"/>
</mask>
<g mask="url(#mask0_257_145)">
<path d="M14.8989 0C11.8401 0 9.28771 2.51154 9.28771 5.58171V32.4684H2.33896C2.18681 32.4684 2.03693 32.4843 1.88706 32.5138C1.73718 32.5433 1.59412 32.5865 1.45333 32.6455C1.31254 32.7045 1.17856 32.7749 1.05139 32.859C0.926497 32.9453 0.808414 33.0406 0.701684 33.1474C0.592684 33.2564 0.497309 33.3722 0.413288 33.4993C0.329268 33.6265 0.256601 33.7605 0.19983 33.9013C0.140789 34.0421 0.0976424 34.1851 0.0681217 34.335C0.0386011 34.4849 0.0227051 34.6348 0.0227051 34.7869V57.9789C0.0227051 58.1311 0.0386011 58.2832 0.0681217 58.4308C0.0976424 58.5807 0.140789 58.726 0.19983 58.8668C0.256601 59.0076 0.329268 59.1416 0.413288 59.2687C0.497309 59.3936 0.592684 59.5117 0.701684 59.6185C0.808414 59.7275 0.926497 59.8228 1.05139 59.9069C1.17856 59.9931 1.31254 60.0635 1.45333 60.1226C1.59412 60.1794 1.73718 60.2248 1.88706 60.2543C2.03693 60.2838 2.18681 60.2974 2.33896 60.2974H9.28771V71.8946H4.65521C4.50306 71.8946 4.35318 71.9082 4.20331 71.9377C4.05343 71.9695 3.91037 72.0127 3.76958 72.0717C3.62879 72.1285 3.49481 72.2011 3.36764 72.2852C3.24275 72.3692 3.12466 72.4668 3.01793 72.5736C2.91121 72.6803 2.81356 72.7984 2.72954 72.9255C2.64552 73.0527 2.57285 73.1844 2.51608 73.3252C2.45704 73.466 2.41389 73.6113 2.38437 73.7612C2.35485 73.9111 2.33896 74.061 2.33896 74.2131V95.0866C2.33896 95.2388 2.35485 95.3886 2.38437 95.5385C2.41389 95.6884 2.45704 95.8314 2.51608 95.9722C2.57285 96.113 2.64552 96.247 2.72954 96.3742C2.81356 96.5013 2.91121 96.6171 3.01793 96.7262C3.12466 96.8329 3.24275 96.9283 3.36764 97.0145C3.49481 97.0986 3.62879 97.169 3.76958 97.228C3.91037 97.287 4.05343 97.3302 4.20331 97.3597C4.35318 97.3892 4.50306 97.4051 4.65521 97.4051H9.28771V103.421C9.28771 106.488 11.8401 109 14.8989 109H152.904C153.056 109 153.209 108.986 153.356 108.957C153.506 108.927 153.651 108.882 153.792 108.825C153.933 108.766 154.065 108.693 154.192 108.609C154.319 108.525 154.435 108.43 154.544 108.321C154.651 108.214 154.746 108.096 154.832 107.969C154.916 107.844 154.987 107.71 155.046 107.569C155.102 107.429 155.148 107.283 155.177 107.133C155.207 106.983 155.221 106.834 155.221 106.681V100.684L161.493 94.4054C161.944 93.9535 162.172 93.4062 162.172 92.7658V34.9322C162.172 34.2873 161.942 33.7378 161.484 33.2836L155.584 27.4408V8.83808C155.582 8.175 155.341 7.6141 154.859 7.15767L147.997 0.640375C147.55 0.213458 147.021 0.00227127 146.403 0H14.8989ZM14.8989 4.63931H145.481L150.951 9.83498V28.4059C150.949 29.053 151.178 29.6049 151.639 30.059L157.539 35.8973V91.8053L151.267 98.0841C150.815 98.536 150.588 99.0833 150.588 99.7236V104.363H14.8989C14.3199 104.363 13.9202 103.95 13.9202 103.421V97.4051H30.1362C30.2884 97.4051 30.4382 97.3892 30.5881 97.3597C30.738 97.3302 30.8811 97.287 31.0219 97.228C31.1626 97.169 31.2966 97.0986 31.4238 97.0145C31.5487 96.9283 31.6668 96.8329 31.7735 96.7262C31.8825 96.6171 31.9779 96.5013 32.0619 96.3742C32.1459 96.247 32.2186 96.113 32.2754 95.9722C32.3344 95.8314 32.3775 95.6884 32.4071 95.5385C32.4366 95.3886 32.4525 95.2388 32.4525 95.0866V74.2131C32.4525 74.061 32.4366 73.9111 32.4071 73.7612C32.3775 73.6113 32.3344 73.466 32.2754 73.3252C32.2186 73.1844 32.1459 73.0527 32.0619 72.9255C31.9779 72.7984 31.8825 72.6803 31.7735 72.5736C31.6668 72.4668 31.5487 72.3692 31.4238 72.2852C31.2966 72.2011 31.1626 72.1285 31.0219 72.0717C30.8811 72.0127 30.738 71.9695 30.5881 71.9377C30.4382 71.9082 30.2884 71.8946 30.1362 71.8946H13.9202V60.2974H30.1362C30.2884 60.2974 30.4382 60.2838 30.5881 60.2543C30.738 60.2248 30.8811 60.1794 31.0219 60.1226C31.1626 60.0635 31.2966 59.9931 31.4238 59.9069C31.5487 59.8228 31.6668 59.7275 31.7735 59.6185C31.8825 59.5117 31.9779 59.3936 32.0619 59.2687C32.1459 59.1416 32.2186 59.0076 32.2754 58.8668C32.3344 58.726 32.3775 58.5807 32.4071 58.4308C32.4366 58.2832 32.4525 58.1311 32.4525 57.9789V34.7869C32.4525 34.6348 32.4366 34.4849 32.4071 34.335C32.3775 34.1851 32.3344 34.0421 32.2754 33.9013C32.2186 33.7605 32.1459 33.6265 32.0619 33.4993C31.9779 33.3722 31.8825 33.2564 31.7735 33.1474C31.6668 33.0406 31.5487 32.9453 31.4238 32.859C31.2966 32.7749 31.1626 32.7045 31.0219 32.6455C30.8811 32.5865 30.738 32.5433 30.5881 32.5138C30.4382 32.4843 30.2884 32.4684 30.1362 32.4684H13.9202V5.58171C13.9202 5.05033 14.3199 4.63931 14.8989 4.63931ZM24.3456 11.5971C22.4267 11.5971 20.8712 13.1549 20.8712 15.0761V22.0316C20.8712 23.9527 22.4267 25.5105 24.3456 25.5105H31.2944C33.2132 25.5105 34.7687 23.9527 34.7687 22.0316V15.0761C34.7687 13.1549 33.2132 11.5971 31.2944 11.5971H24.3456ZM45.1919 11.5971C44.9648 11.5971 44.7377 11.6176 44.5151 11.663C44.2903 11.7084 44.0746 11.7743 43.8634 11.8606C43.6522 11.9491 43.4524 12.0559 43.2616 12.183C43.0732 12.3102 42.896 12.4532 42.7348 12.6145C42.5736 12.7757 42.4305 12.9528 42.3034 13.1413C42.1762 13.3321 42.0695 13.5319 41.9832 13.7431C41.8946 13.9543 41.8288 14.1723 41.7856 14.3971C41.7402 14.6196 41.7175 14.8467 41.7175 15.0761C41.7175 15.3031 41.7402 15.5302 41.7856 15.7528C41.8288 15.9776 41.8946 16.1956 41.9832 16.4068C42.0695 16.618 42.1762 16.8178 42.3034 17.0085C42.4305 17.197 42.5736 17.3741 42.7348 17.5354C42.896 17.6966 43.0732 17.8397 43.2616 17.9668C43.4524 18.094 43.6522 18.2007 43.8634 18.2893C44.0746 18.3756 44.2903 18.4414 44.5151 18.4869C44.7377 18.5323 44.9648 18.5527 45.1919 18.5527C45.4212 18.5527 45.646 18.5323 45.8708 18.4869C46.0934 18.4414 46.3114 18.3756 46.5226 18.2893C46.7338 18.2007 46.9336 18.094 47.1221 17.9668C47.3128 17.8397 47.4877 17.6966 47.6489 17.5354C47.8101 17.3741 47.9555 17.197 48.0826 17.0085C48.2075 16.8178 48.3165 16.618 48.4028 16.4068C48.4891 16.1956 48.555 15.9776 48.6004 15.7528C48.6458 15.5302 48.6662 15.3031 48.6662 15.0761C48.6662 14.8467 48.6458 14.6196 48.6004 14.3971C48.555 14.1723 48.4891 13.9543 48.4028 13.7431C48.3165 13.5319 48.2075 13.3321 48.0826 13.1413C47.9555 12.9528 47.8101 12.7757 47.6489 12.6145C47.4877 12.4532 47.3128 12.3102 47.1221 12.183C46.9336 12.0559 46.7338 11.9491 46.5226 11.8606C46.3114 11.7743 46.0934 11.7084 45.8708 11.663C45.646 11.6176 45.4212 11.5971 45.1919 11.5971ZM57.9335 13.9157C57.7791 13.9134 57.6269 13.927 57.4771 13.9543C57.3249 13.9815 57.1796 14.0247 57.0365 14.0814C56.8935 14.1405 56.7595 14.2109 56.63 14.2949C56.5006 14.3789 56.3825 14.4743 56.2735 14.5833C56.1645 14.69 56.0669 14.8081 55.9806 14.9353C55.8943 15.0624 55.8216 15.1987 55.7626 15.3395C55.7035 15.4803 55.6581 15.6279 55.6286 15.7778C55.5991 15.9299 55.5832 16.082 55.5832 16.2342C55.5832 16.3886 55.5991 16.5408 55.6286 16.6906C55.6581 16.8428 55.7035 16.9881 55.7626 17.1289C55.8216 17.272 55.8943 17.4059 55.9806 17.5331C56.0669 17.6603 56.1645 17.7784 56.2735 17.8874C56.3825 17.9941 56.5006 18.0895 56.63 18.1735C56.7595 18.2598 56.8935 18.3302 57.0365 18.3869C57.1796 18.4437 57.3249 18.4869 57.4771 18.5141C57.6269 18.5436 57.7791 18.555 57.9335 18.5527C58.0856 18.555 58.2378 18.5436 58.3899 18.5141C58.5398 18.4869 58.6874 18.4437 58.8305 18.3869C58.9713 18.3302 59.1075 18.2598 59.2347 18.1735C59.3641 18.0895 59.4822 17.9941 59.5912 17.8874C59.7025 17.7784 59.8001 17.6603 59.8841 17.5331C59.9704 17.4059 60.0431 17.272 60.1021 17.1289C60.1612 16.9881 60.2066 16.8428 60.2361 16.6906C60.2679 16.5408 60.2815 16.3886 60.2815 16.2342C60.2815 16.082 60.2679 15.9299 60.2361 15.7778C60.2066 15.6279 60.1612 15.4803 60.1021 15.3395C60.0431 15.1987 59.9704 15.0624 59.8841 14.9353C59.8001 14.8081 59.7025 14.69 59.5912 14.5833C59.4822 14.4743 59.3641 14.3789 59.2347 14.2949C59.1075 14.2109 58.9713 14.1405 58.8305 14.0814C58.6874 14.0247 58.5398 13.9815 58.3899 13.9543C58.2378 13.927 58.0856 13.9134 57.9335 13.9157ZM66.272 13.9157L64.4167 14.849L64.0489 16.8905L65.4704 18.4096L66.272 18.5527L68.125 17.6217L68.4929 15.5779L67.0759 14.061L66.272 13.9157ZM74.6082 13.9157L72.7552 14.849L72.3874 16.8905L73.8089 18.4096L74.6082 18.5527L76.468 17.6217L76.8314 15.5779L75.4144 14.061L74.6082 13.9157ZM82.9513 13.9157L81.0915 14.849L80.7304 16.8905L82.1474 18.4096L82.9513 18.5527L84.8065 17.6217L85.1721 15.5779L83.7529 14.061L82.9513 13.9157ZM91.2898 13.9157L89.4345 14.849L89.0689 16.8905L90.4836 18.4096L91.2898 18.5527L93.1451 17.6217L93.5107 15.5779L92.0914 14.061L91.2898 13.9157ZM99.6283 13.9157C99.4739 13.9134 99.3217 13.927 99.1718 13.9543C99.0197 13.9815 98.8744 14.0247 98.7313 14.0814C98.5882 14.1405 98.4543 14.2109 98.3248 14.2949C98.1977 14.3789 98.0773 14.4743 97.9683 14.5833C97.8593 14.69 97.7617 14.8081 97.6754 14.9353C97.5891 15.0624 97.5164 15.1987 97.4574 15.3395C97.3983 15.4803 97.3552 15.6279 97.3234 15.7778C97.2939 15.9299 97.278 16.082 97.278 16.2342C97.278 16.3886 97.2939 16.5408 97.3234 16.6906C97.3552 16.8428 97.3983 16.9881 97.4574 17.1289C97.5164 17.272 97.5891 17.4059 97.6754 17.5331C97.7617 17.6603 97.8593 17.7784 97.9683 17.8874C98.0773 17.9941 98.1977 18.0895 98.3248 18.1735C98.4543 18.2598 98.5882 18.3302 98.7313 18.3869C98.8744 18.4437 99.0197 18.4869 99.1718 18.5141C99.3217 18.5436 99.4739 18.555 99.6283 18.5527V13.9157ZM113.526 13.9157V18.5527C113.68 18.555 113.832 18.5436 113.982 18.5141C114.134 18.4869 114.28 18.4437 114.423 18.3869C114.566 18.3302 114.7 18.2598 114.829 18.1735C114.959 18.0895 115.077 17.9941 115.186 17.8874C115.295 17.7784 115.392 17.6603 115.479 17.5331C115.565 17.4059 115.638 17.272 115.697 17.1289C115.756 16.9881 115.801 16.8428 115.831 16.6906C115.86 16.5408 115.876 16.3886 115.876 16.2342C115.876 16.082 115.86 15.9299 115.831 15.7778C115.801 15.6279 115.756 15.4803 115.697 15.3395C115.638 15.1987 115.565 15.0624 115.479 14.9353C115.392 14.8081 115.295 14.69 115.186 14.5833C115.077 14.4743 114.959 14.3789 114.829 14.2949C114.7 14.2109 114.566 14.1405 114.423 14.0814C114.28 14.0247 114.134 13.9815 113.982 13.9543C113.832 13.927 113.68 13.9134 113.526 13.9157ZM122.793 13.9157L120.938 14.849L120.57 16.8905L121.987 18.4096L122.793 18.5527L124.646 17.6217L125.014 15.5779L123.597 14.061L122.793 13.9157ZM132.058 13.9157L130.203 14.849L129.837 16.8905L131.252 18.4096L132.058 18.5527L133.913 17.6217L134.279 15.5779L132.862 14.061L132.058 13.9157ZM141.323 13.9157C141.169 13.9134 141.016 13.927 140.867 13.9543C140.717 13.9815 140.569 14.0247 140.426 14.0814C140.285 14.1405 140.149 14.2109 140.02 14.2949C139.892 14.3789 139.774 14.4743 139.663 14.5833C139.554 14.69 139.456 14.8081 139.37 14.9353C139.286 15.0624 139.213 15.1987 139.154 15.3395C139.093 15.4803 139.05 15.6279 139.018 15.7778C138.989 15.9299 138.973 16.082 138.973 16.2342C138.973 16.3886 138.989 16.5408 139.018 16.6906C139.05 16.8428 139.093 16.9881 139.154 17.1289C139.213 17.272 139.286 17.4059 139.37 17.5331C139.456 17.6603 139.554 17.7784 139.663 17.8874C139.774 17.9941 139.892 18.0895 140.02 18.1735C140.149 18.2598 140.285 18.3302 140.426 18.3869C140.569 18.4437 140.717 18.4869 140.867 18.5141C141.016 18.5436 141.169 18.555 141.323 18.5527V13.9157ZM89.3028 25.5105C83.5349 25.5105 78.7798 30.1975 78.7798 35.9473C78.7798 41.697 83.5349 46.384 89.3028 46.384C95.7361 46.384 98.8903 42.8938 100.786 40.0598C102.683 42.8938 105.837 46.384 112.268 46.384C118.038 46.384 122.793 41.697 122.793 35.9473C122.793 30.1975 118.038 25.5105 112.268 25.5105C105.837 25.5105 102.68 29.0008 100.786 31.8348C98.8903 29.0008 95.7361 25.5105 89.3028 25.5105ZM89.3028 30.1499C95.1093 30.1499 97.4483 34.6325 98.0728 35.9473C97.4483 37.2644 95.1093 41.7447 89.3028 41.7447C86.0078 41.7447 83.4123 39.1628 83.4123 35.9473C83.4123 32.7318 86.0078 30.1499 89.3028 30.1499ZM112.268 30.1499C115.565 30.1499 118.158 32.7318 118.158 35.9473C118.158 39.1628 115.565 41.7447 112.268 41.7447C106.461 41.7447 104.125 37.2644 103.5 35.9473C104.125 34.6325 106.463 30.1499 112.268 30.1499ZM4.65521 37.1077H27.82V55.6604H4.65521V37.1077ZM147.114 39.4262C145.197 39.4262 143.639 40.984 143.639 42.9051C143.639 44.8263 145.197 46.384 147.114 46.384C149.033 46.384 150.588 44.8263 150.588 42.9051C150.588 40.984 149.033 39.4262 147.114 39.4262ZM44.0337 41.7447C43.8816 41.7447 43.7317 41.7606 43.5818 41.7901C43.4342 41.8197 43.2889 41.8628 43.1481 41.9219C43.0073 41.9809 42.8733 42.0513 42.7484 42.1353C42.6213 42.2216 42.5032 42.317 42.3965 42.4237C42.2897 42.5327 42.1921 42.6485 42.1081 42.7757C42.024 42.9029 41.9536 43.0368 41.8946 43.1776C41.8356 43.3184 41.7924 43.4637 41.7629 43.6114C41.7334 43.7612 41.7175 43.9111 41.7175 44.0655V57.9789C41.7175 58.1311 41.7334 58.2832 41.7629 58.4308C41.7924 58.5807 41.8356 58.726 41.8946 58.8668C41.9536 59.0076 42.024 59.1416 42.1081 59.2687C42.1921 59.3936 42.2897 59.5117 42.3965 59.6185C42.5032 59.7275 42.6213 59.8228 42.7484 59.9069C42.8733 59.9931 43.0073 60.0635 43.1481 60.1226C43.2889 60.1794 43.4342 60.2248 43.5818 60.2543C43.7317 60.2838 43.8816 60.2974 44.0337 60.2974H57.9335C58.0856 60.2974 58.2355 60.2838 58.3854 60.2543C58.533 60.2248 58.6783 60.1794 58.8191 60.1226C58.9599 60.0635 59.0939 59.9931 59.2188 59.9069C59.346 59.8228 59.464 59.7275 59.5708 59.6185C59.6775 59.5117 59.7752 59.3936 59.8592 59.2687C59.9432 59.1416 60.0136 59.0076 60.0726 58.8668C60.1317 58.726 60.1748 58.5807 60.2043 58.4308C60.2339 58.2832 60.2498 58.1311 60.2498 57.9789V44.0655C60.2498 43.9111 60.2339 43.7612 60.2043 43.6114C60.1748 43.4637 60.1317 43.3184 60.0726 43.1776C60.0136 43.0368 59.9432 42.9029 59.8592 42.7757C59.7752 42.6485 59.6775 42.5327 59.5708 42.4237C59.464 42.317 59.346 42.2216 59.2188 42.1353C59.0939 42.0513 58.9599 41.9809 58.8191 41.9219C58.6783 41.8628 58.533 41.8197 58.3854 41.7901C58.2355 41.7606 58.0856 41.7447 57.9335 41.7447H44.0337ZM46.35 46.384H55.6173V55.6604H46.35V46.384ZM74.1473 55.6604C73.9951 55.6604 73.8452 55.674 73.6954 55.7058C73.5455 55.7353 73.4024 55.7785 73.2616 55.8375C73.1208 55.8943 72.9869 55.967 72.8597 56.051C72.7348 56.135 72.6167 56.2326 72.51 56.3394C72.4033 56.4461 72.3056 56.5642 72.2216 56.6914C72.1376 56.8185 72.0649 56.9502 72.0081 57.091C71.9491 57.2318 71.9059 57.3771 71.8764 57.527C71.8469 57.6769 71.831 57.8268 71.831 57.9789V74.2131C71.831 74.3652 71.8469 74.5174 71.8764 74.665C71.9059 74.8149 71.9491 74.9602 72.0081 75.101C72.0649 75.2418 72.1376 75.3758 72.2216 75.5007C72.3056 75.6278 72.4033 75.7459 72.51 75.8526C72.6167 75.9616 72.7348 76.057 72.8597 76.141C72.9869 76.2273 73.1208 76.2977 73.2616 76.3568C73.4024 76.4135 73.5455 76.459 73.6954 76.4885C73.8452 76.518 73.9951 76.5316 74.1473 76.5316H145.956C146.108 76.5316 146.26 76.518 146.407 76.4885C146.557 76.459 146.703 76.4135 146.843 76.3568C146.982 76.2977 147.116 76.2273 147.243 76.141C147.37 76.057 147.486 75.9616 147.593 75.8526C147.702 75.7459 147.797 75.6278 147.881 75.5029C147.968 75.3758 148.038 75.2418 148.097 75.101C148.154 74.9602 148.199 74.8149 148.229 74.665C148.258 74.5174 148.272 74.3652 148.272 74.2131V57.9789C148.272 57.8268 148.258 57.6769 148.229 57.527C148.199 57.3771 148.154 57.2318 148.097 57.091C148.038 56.9502 147.968 56.8185 147.881 56.6914C147.797 56.5642 147.702 56.4461 147.593 56.3394C147.486 56.2326 147.37 56.135 147.243 56.051C147.116 55.967 146.982 55.8943 146.843 55.8375C146.703 55.7785 146.557 55.7353 146.407 55.7058C146.26 55.674 146.108 55.6604 145.956 55.6604H74.1473ZM76.4635 60.2974H143.639V71.8946H76.4635V60.2974ZM44.0337 71.8946C43.7294 71.8946 43.4297 71.9241 43.1299 71.9831C42.8325 72.0422 42.5418 72.1308 42.2625 72.2466C41.9809 72.3646 41.7129 72.5077 41.4609 72.6758C41.2065 72.8461 40.9726 73.0368 40.7592 73.2525C40.5435 73.4683 40.3504 73.7022 40.1824 73.9565C40.0144 74.2086 39.8713 74.4765 39.7532 74.7581C39.6374 75.0397 39.5488 75.3281 39.4898 75.6278C39.4308 75.9253 39.4012 76.2273 39.4012 76.5316C39.4012 76.8382 39.4308 77.1379 39.4898 77.4377C39.5488 77.7352 39.6374 78.0258 39.7532 78.3074C39.8713 78.589 40.0144 78.857 40.1824 79.109C40.3504 79.3634 40.5435 79.5973 40.7592 79.813C40.9726 80.0287 41.2065 80.2195 41.4609 80.3898C41.7129 80.5578 41.9809 80.7009 42.2625 80.8167C42.5418 80.9348 42.8325 81.0233 43.1299 81.0824C43.4297 81.1414 43.7294 81.1709 44.0337 81.1709C44.338 81.1709 44.64 81.1414 44.9375 81.0824C45.2373 81.0233 45.5257 80.9348 45.8073 80.8167C46.0888 80.7009 46.3545 80.5578 46.6089 80.3898C46.8609 80.2195 47.0948 80.0287 47.3105 79.813C47.5263 79.5973 47.717 79.3634 47.8873 79.109C48.0554 78.857 48.1984 78.589 48.3143 78.3074C48.4301 78.0258 48.5186 77.7352 48.5777 77.4377C48.6367 77.1379 48.6662 76.8382 48.6662 76.5316C48.6662 76.2273 48.6367 75.9253 48.5777 75.6278C48.5186 75.3281 48.4301 75.0397 48.3143 74.7581C48.1984 74.4765 48.0554 74.2086 47.8873 73.9565C47.717 73.7022 47.5263 73.4683 47.3105 73.2525C47.0948 73.0368 46.8609 72.8461 46.6089 72.6758C46.3545 72.5077 46.0888 72.3646 45.8073 72.2466C45.5257 72.1308 45.2373 72.0422 44.9375 71.9831C44.64 71.9241 44.338 71.8946 44.0337 71.8946ZM60.2498 71.8946C59.9455 71.8946 59.6434 71.9241 59.346 71.9831C59.0462 72.0422 58.7578 72.1308 58.4762 72.2466C58.1946 72.3646 57.929 72.5077 57.6746 72.6758C57.4226 72.8461 57.1887 73.0368 56.9729 73.2525C56.7572 73.4683 56.5665 73.7022 56.3961 73.9565C56.2281 74.2086 56.085 74.4765 55.9692 74.7581C55.8534 75.0397 55.7649 75.3281 55.7058 75.6278C55.6468 75.9253 55.6173 76.2273 55.6173 76.5316C55.6173 76.8382 55.6468 77.1379 55.7058 77.4377C55.7649 77.7352 55.8534 78.0258 55.9692 78.3074C56.085 78.589 56.2281 78.857 56.3961 79.109C56.5665 79.3634 56.7572 79.5973 56.9729 79.813C57.1887 80.0287 57.4226 80.2195 57.6746 80.3898C57.929 80.5578 58.1946 80.7009 58.4762 80.8167C58.7578 80.9348 59.0462 81.0233 59.346 81.0824C59.6434 81.1414 59.9455 81.1709 60.2498 81.1709C60.554 81.1709 60.8538 81.1414 61.1535 81.0824C61.451 81.0233 61.7417 80.9348 62.021 80.8167C62.3026 80.7009 62.5705 80.5578 62.8226 80.3898C63.0769 80.2195 63.3108 80.0287 63.5243 79.813C63.74 79.5973 63.933 79.3634 64.1011 79.109C64.2691 78.857 64.4122 78.589 64.5303 78.3074C64.6461 78.0258 64.7346 77.7352 64.7937 77.4377C64.8527 77.1379 64.8823 76.8382 64.8823 76.5316C64.8823 76.2273 64.8527 75.9253 64.7937 75.6278C64.7346 75.3281 64.6461 75.0397 64.5303 74.7581C64.4122 74.4765 64.2691 74.2086 64.1011 73.9565C63.933 73.7022 63.74 73.4683 63.5243 73.2525C63.3108 73.0368 63.0769 72.8461 62.8226 72.6758C62.5705 72.5077 62.3026 72.3646 62.021 72.2466C61.7417 72.1308 61.451 72.0422 61.1535 71.9831C60.8538 71.9241 60.554 71.8946 60.2498 71.8946ZM6.97146 76.5316H27.82V92.7658H6.97146V76.5316ZM147.114 83.4895C145.197 83.4895 143.639 85.0495 143.639 86.9684C143.639 88.8895 145.197 90.4473 147.114 90.4473C149.033 90.4473 150.588 88.8895 150.588 86.9684C150.588 85.0495 149.033 83.4895 147.114 83.4895ZM45.1919 90.4473C44.9648 90.4473 44.7377 90.47 44.5151 90.5154C44.2903 90.5586 44.0746 90.6244 43.8634 90.713C43.6522 90.7993 43.4524 90.906 43.2616 91.0332C43.0732 91.1603 42.896 91.3057 42.7348 91.4669C42.5736 91.6281 42.4305 91.803 42.3034 91.9937C42.1762 92.1845 42.0695 92.3843 41.9832 92.5955C41.8946 92.8067 41.8288 93.0224 41.7856 93.2472C41.7402 93.472 41.7175 93.6969 41.7175 93.9262C41.7175 94.1556 41.7402 94.3804 41.7856 94.6052C41.8288 94.8277 41.8946 95.0457 41.9832 95.2569C42.0695 95.4681 42.1762 95.6679 42.3034 95.8587C42.4305 96.0494 42.5736 96.2243 42.7348 96.3855C42.896 96.5468 43.0732 96.6921 43.2616 96.8193C43.4524 96.9464 43.6522 97.0531 43.8634 97.1394C44.0746 97.228 44.2903 97.2939 44.5151 97.337C44.7377 97.3824 44.9648 97.4051 45.1919 97.4051C45.4212 97.4051 45.646 97.3824 45.8708 97.337C46.0934 97.2939 46.3114 97.228 46.5226 97.1394C46.7338 97.0531 46.9336 96.9464 47.1221 96.8193C47.3128 96.6921 47.4877 96.5468 47.6489 96.3855C47.8101 96.2243 47.9555 96.0494 48.0826 95.8587C48.2075 95.6679 48.3165 95.4681 48.4028 95.2569C48.4891 95.0457 48.555 94.8277 48.6004 94.6052C48.6458 94.3804 48.6662 94.1556 48.6662 93.9262C48.6662 93.6969 48.6458 93.472 48.6004 93.2472C48.555 93.0224 48.4891 92.8067 48.4028 92.5955C48.3165 92.3843 48.2075 92.1845 48.0826 91.9937C47.9555 91.803 47.8101 91.6281 47.6489 91.4669C47.4877 91.3057 47.3128 91.1603 47.1221 91.0332C46.9336 90.906 46.7338 90.7993 46.5226 90.713C46.3114 90.6244 46.0934 90.5586 45.8708 90.5154C45.646 90.47 45.4212 90.4473 45.1919 90.4473ZM67.1985 92.7658V97.4051C67.3529 97.4074 67.5051 97.3938 67.6549 97.3665C67.8048 97.337 67.9524 97.2961 68.0955 97.2371C68.2385 97.1803 68.3725 97.1099 68.502 97.0259C68.6291 96.9419 68.7495 96.8442 68.8585 96.7375C68.9675 96.6285 69.0651 96.5127 69.1514 96.3855C69.2377 96.2584 69.3081 96.1221 69.3694 95.9813C69.4285 95.8382 69.4716 95.6929 69.5034 95.543C69.5329 95.3909 69.5488 95.2388 69.5488 95.0866C69.5488 94.9322 69.5329 94.78 69.5034 94.6302C69.4716 94.478 69.4285 94.3327 69.3694 94.1896C69.3081 94.0488 69.2377 93.9149 69.1514 93.7877C69.0651 93.6605 68.9675 93.5424 68.8585 93.4334C68.7495 93.3267 68.6291 93.2291 68.502 93.145C68.3725 93.061 68.2385 92.9906 68.0955 92.9339C67.9524 92.8771 67.8048 92.8339 67.6549 92.8044C67.5051 92.7772 67.3529 92.7635 67.1985 92.7658ZM75.8844 92.7658L74.0292 93.6991L73.6636 95.7429L75.0806 97.2598L75.8844 97.4051L77.7397 96.4718L78.1053 94.4281L76.6906 92.9111L75.8844 92.7658ZM84.5704 92.7658L82.7174 93.6991L82.3495 95.7429L83.7665 97.2598L84.5704 97.4051L86.4257 96.4718L86.7935 94.4281L85.3765 92.9111L84.5704 92.7658ZM93.2586 92.7658L91.4033 93.6991L91.0354 95.7429L92.4524 97.2598L93.2586 97.4051L95.1139 96.4718L95.4795 94.4281L94.0625 92.9111L93.2586 92.7658ZM101.945 92.7658C101.79 92.7635 101.638 92.7772 101.488 92.8044C101.336 92.8339 101.191 92.8771 101.048 92.9339C100.904 92.9906 100.771 93.061 100.641 93.145C100.514 93.2291 100.394 93.3267 100.285 93.4334C100.176 93.5424 100.078 93.6605 99.9916 93.7877C99.9053 93.9149 99.8327 94.0488 99.7736 94.1896C99.7146 94.3327 99.6714 94.478 99.6396 94.6302C99.6101 94.78 99.5942 94.9322 99.5942 95.0866C99.5942 95.2388 99.6101 95.3909 99.6396 95.543C99.6714 95.6929 99.7146 95.8382 99.7736 95.9813C99.8327 96.1221 99.9053 96.2584 99.9916 96.3855C100.078 96.5127 100.176 96.6285 100.285 96.7375C100.394 96.8442 100.514 96.9419 100.641 97.0259C100.771 97.1099 100.904 97.1803 101.048 97.2371C101.191 97.2961 101.336 97.337 101.488 97.3665C101.638 97.3938 101.79 97.4074 101.945 97.4051V92.7658ZM115.842 92.7658V97.4051C115.996 97.4074 116.149 97.3938 116.298 97.3665C116.451 97.337 116.596 97.2961 116.739 97.2371C116.882 97.1803 117.018 97.1099 117.145 97.0259C117.275 96.9419 117.393 96.8442 117.502 96.7375C117.611 96.6285 117.709 96.5127 117.795 96.3855C117.881 96.2584 117.954 96.1221 118.013 95.9813C118.072 95.8382 118.117 95.6929 118.147 95.543C118.176 95.3909 118.192 95.2388 118.192 95.0866C118.192 94.9322 118.176 94.78 118.147 94.6302C118.117 94.478 118.072 94.3327 118.013 94.1896C117.954 94.0488 117.881 93.9149 117.795 93.7877C117.709 93.6605 117.611 93.5424 117.502 93.4334C117.393 93.3267 117.275 93.2291 117.145 93.145C117.018 93.061 116.882 92.9906 116.739 92.9339C116.596 92.8771 116.451 92.8339 116.298 92.8044C116.149 92.7772 115.996 92.7635 115.842 92.7658ZM125.109 92.7658L123.254 93.6991L122.886 95.7429L124.303 97.2598L125.109 97.4051L126.962 96.4718L127.33 94.4281L125.913 92.9111L125.109 92.7658ZM134.374 92.7658C134.22 92.7635 134.068 92.7772 133.918 92.8044C133.766 92.8339 133.62 92.8771 133.477 92.9339C133.334 92.9906 133.2 93.061 133.071 93.145C132.944 93.2291 132.823 93.3267 132.714 93.4334C132.605 93.5424 132.508 93.6605 132.421 93.7877C132.335 93.9149 132.262 94.0488 132.203 94.1896C132.144 94.3327 132.099 94.478 132.069 94.6302C132.04 94.78 132.024 94.9322 132.024 95.0866C132.024 95.2388 132.04 95.3909 132.069 95.543C132.099 95.6929 132.144 95.8382 132.203 95.9813C132.262 96.1221 132.335 96.2584 132.421 96.3855C132.508 96.5127 132.605 96.6285 132.714 96.7375C132.823 96.8442 132.944 96.9419 133.071 97.0259C133.2 97.1099 133.334 97.1803 133.477 97.2371C133.62 97.2961 133.766 97.337 133.918 97.3665C134.068 97.3938 134.22 97.4074 134.374 97.4051C134.526 97.4074 134.679 97.3938 134.831 97.3665C134.981 97.337 135.128 97.2961 135.271 97.2371C135.412 97.1803 135.548 97.1099 135.678 97.0259C135.805 96.9419 135.923 96.8442 136.034 96.7375C136.143 96.6285 136.241 96.5127 136.327 96.3855C136.411 96.2584 136.484 96.1221 136.545 95.9813C136.604 95.8382 136.647 95.6929 136.679 95.543C136.709 95.3909 136.725 95.2388 136.725 95.0866C136.725 94.9322 136.709 94.78 136.679 94.6302C136.647 94.478 136.604 94.3327 136.545 94.1896C136.484 94.0488 136.411 93.9149 136.327 93.7877C136.241 93.6605 136.143 93.5424 136.034 93.4334C135.923 93.3267 135.805 93.2291 135.678 93.145C135.548 93.061 135.412 92.9906 135.271 92.9339C135.128 92.8771 134.981 92.8339 134.831 92.8044C134.679 92.7772 134.526 92.7635 134.374 92.7658Z" fill="#2A9A93"/>
</g>
</svg>
